<svg width="57" height="96" viewBox="0 0 57 96" fill="none" xmlns="http://www.w3.org/2000/svg">
<path d="M4.30908 14.6163C4.30908 7.19184 9.88059 0.930237 17.2885 0.434489C20.9719 0.187994 24.9432 0 28.4886 0C32.034 0 36.0054 0.187994 39.6887 0.434489C47.0967 0.930237 52.6682 7.19184 52.6682 14.6163V81.3965C52.6682 89.4618 46.13 96 38.0647 96H18.9126C10.8473 96 4.30908 89.4618 4.30908 81.3965V14.6163Z" fill="#2FA5D0"/>
<path d="M9.33643 13.4207C9.33643 9.64809 11.9347 6.38818 15.6741 5.88877C19.0229 5.44152 23.477 5.02734 28.4885 5.02734C33.5001 5.02734 37.9542 5.44152 41.303 5.88877C45.0423 6.38818 47.6407 9.64808 47.6407 13.4207V64.1763C47.6407 67.4785 45.63 70.4404 42.4156 71.1966C39.0621 71.9857 34.2581 72.778 28.4885 72.778C22.719 72.778 17.915 71.9857 14.5615 71.1966C11.3471 70.4404 9.33643 67.4785 9.33643 64.1763V13.4207Z" fill="#080E13"/>
<path d="M13.4062 17.0716C13.4062 13.2471 16.0775 9.95455 19.881 9.55471C22.2931 9.30114 25.2423 9.09717 28.4885 9.09717C31.7348 9.09717 34.684 9.30114 37.0961 9.55472C40.8996 9.95455 43.5708 13.2471 43.5708 17.0716V50.5075C43.5708 53.8895 41.4629 56.9053 38.139 57.5294C35.6171 58.003 32.3237 58.4139 28.4885 58.4139C24.6534 58.4139 21.36 58.003 18.838 57.5294C15.5142 56.9053 13.4062 53.8895 13.4062 50.5075V17.0716Z" fill="#DCDEDE"/>
<ellipse cx="11.9097" cy="86.4088" rx="3.82177" ry="4.83342" transform="rotate(-32.6557 11.9097 86.4088)" fill="#DCDEDE"/>
<ellipse rx="3.82177" ry="4.83342" transform="matrix(-0.841928 -0.53959 -0.53959 0.841928 45.0874 86.4088)" fill="#DCDEDE"/>
<path d="M0.766113 55.3018L7.39803 56.277L7.11937 58.1719C6.85006 60.0032 5.14713 61.2695 3.31578 61.0002C1.48442 60.7309 0.218145 59.0279 0.487462 57.1966L0.766113 55.3018Z" fill="#C4C4C4"/>
<path d="M56.188 55.3018L49.5561 56.277L49.8347 58.1719C50.104 60.0032 51.807 61.2695 53.6383 61.0002C55.4697 60.7309 56.736 59.0279 56.4666 57.1966L56.188 55.3018Z" fill="#C4C4C4"/>
</svg>
