<svg width="101" height="101" viewBox="0 0 101 101" fill="none" xmlns="http://www.w3.org/2000/svg">
<path d="M21.7994 91.3568C-0.732986 75.4732 -6.12293 44.3309 9.76066 21.7985C25.6443 -0.733963 56.7866 -6.12391 79.319 9.75969C101.851 25.6433 107.241 56.7856 91.3578 79.318C75.4742 101.85 44.3319 107.24 21.7994 91.3568Z" fill="#D0BA01"/>
<path fill-rule="evenodd" clip-rule="evenodd" d="M38.483 67.6878C47.9437 74.3569 61.0195 72.0938 67.6886 62.6331L72.7158 66.1769C64.0895 78.414 47.1764 81.3413 34.9392 72.715C22.7021 64.0888 19.7749 47.1757 28.4011 34.9385C37.0273 22.7013 53.9405 19.7741 66.1776 28.4003L62.6339 33.4275C53.1731 26.7584 40.0973 29.0215 33.4283 38.4823C26.7592 47.943 29.0223 61.0188 38.483 67.6878Z" fill="black"/>
<path d="M67.5637 21.9964L78.6248 38.3479L59.1141 41.3563L67.5637 21.9964Z" fill="black"/>
</svg>
